<?xml version="1.0" encoding="UTF-8" standalone="no"?>
<svg
   xmlns:dc="http://purl.org/dc/elements/1.1/"
   xmlns:cc="http://creativecommons.org/ns#"
   xmlns:rdf="http://www.w3.org/1999/02/22-rdf-syntax-ns#"
   xmlns:svg="http://www.w3.org/2000/svg"
   xmlns="http://www.w3.org/2000/svg"
   xmlns:sodipodi="http://sodipodi.sourceforge.net/DTD/sodipodi-0.dtd"
   xmlns:inkscape="http://www.inkscape.org/namespaces/inkscape"
   width="1024"
   height="1024"
   viewBox="0 0 1024 1024"
   fill="none"
   version="1.1"
   id="svg4"
   sodipodi:docname="gh (copy 1).svg"
   inkscape:version="0.92.2 2405546, 2018-03-11">
  <metadata
     id="metadata10">
    <rdf:RDF>
      <cc:Work
         rdf:about="">
        <dc:format>image/svg+xml</dc:format>
        <dc:type
           rdf:resource="http://purl.org/dc/dcmitype/StillImage" />
      </cc:Work>
    </rdf:RDF>
  </metadata>
  <defs
     id="defs8" />
  <sodipodi:namedview
     pagecolor="#ffffff"
     bordercolor="#666666"
     borderopacity="1"
     objecttolerance="10"
     gridtolerance="10"
     guidetolerance="10"
     inkscape:pageopacity="0"
     inkscape:pageshadow="2"
     inkscape:window-width="1559"
     inkscape:window-height="876"
     id="namedview6"
     showgrid="false"
     inkscape:zoom="0.23046875"
     inkscape:cx="512"
     inkscape:cy="512"
     inkscape:window-x="0"
     inkscape:window-y="0"
     inkscape:window-maximized="1"
     inkscape:current-layer="svg4" />
  <path
     fill-rule="evenodd"
     clip-rule="evenodd"
     d="M8 0C3.58 0 0 3.58 0 8C0 11.54 2.29 14.53 5.47 15.59C5.87 15.66 6.02 15.42 6.02 15.21C6.02 15.02 6.01 14.39 6.01 13.72C4 14.09 3.48 13.23 3.32 12.78C3.23 12.55 2.84 11.84 2.5 11.65C2.22 11.5 1.82 11.13 2.49 11.12C3.12 11.11 3.57 11.7 3.72 11.94C4.44 13.15 5.59 12.81 6.05 12.6C6.12 12.08 6.33 11.73 6.56 11.53C4.78 11.33 2.92 10.64 2.92 7.58C2.92 6.71 3.23 5.99 3.74 5.43C3.66 5.23 3.38 4.41 3.82 3.31C3.82 3.31 4.49 3.1 6.02 4.13C6.66 3.95 7.34 3.86 8.02 3.86C8.7 3.86 9.38 3.95 10.02 4.13C11.55 3.09 12.22 3.31 12.22 3.31C12.66 4.41 12.38 5.23 12.3 5.43C12.81 5.99 13.12 6.7 13.12 7.58C13.12 10.65 11.25 11.33 9.47 11.53C9.76 11.78 10.01 12.26 10.01 13.01C10.01 14.08 10 14.94 10 15.21C10 15.42 10.15 15.67 10.55 15.59C13.71 14.53 16 11.53 16 8C16 3.58 12.42 0 8 0Z"
     transform="scale(64)"
     fill="#1B1F23"
     id="path2" />
  <path
     style="fill:#ffffff;stroke-width:4.33898306"
     d="M 311.00334,980.43696 C 232.46855,946.15079 153.82604,883.80902 102.68098,815.29492 68.724714,769.80697 32.987641,695.23413 19.314693,641.33376 -55.780812,345.29849 137.31318,53.364988 438.21924,8.0034313 726.85407,-35.508235 996.28943,178.5402 1019.1569,469.51966 c 13.9536,177.55436 -61.73052,344.78328 -204.84863,452.62601 -39.7719,29.96905 -115.91693,68.56465 -142.23503,72.09468 -28.92735,3.87996 -29.90375,0.58593 -29.90375,-100.88552 0,-92.87312 -4.13457,-119.83478 -21.82547,-142.32511 l -8.82671,-11.22139 16.41081,-2.75378 c 115.19744,-19.33043 177.98131,-69.4945 203.4718,-162.57319 5.49385,-20.06081 7.72052,-43.86218 7.71245,-82.44068 -0.013,-60.86831 -6.65678,-85.15313 -34.28616,-125.31921 -13.60918,-19.78426 -14.33978,-22.53949 -10.07356,-37.99039 5.32185,-19.27416 2.44372,-78.44528 -5.01113,-103.02299 l -5.1082,-16.84106 -26.75734,2.37058 c -21.05504,1.86538 -36.64657,7.43272 -73.16159,26.12421 l -46.40429,23.75363 -29.52791,-6.67506 c -41.33554,-9.34427 -149.47415,-9.30455 -191.09486,0.0702 l -31.39742,7.07202 -29.21711,-17.07349 c -36.55094,-21.35916 -78.25768,-35.46973 -99.5881,-33.69348 -15.21763,1.26722 -16.74974,2.70101 -22.31817,20.88604 -6.99167,22.83301 -8.3572,88.55177 -2.15883,103.89826 3.60715,8.93092 2.04699,13.54256 -9.858,29.13894 -24.0311,31.48245 -33.48174,62.47985 -35.50517,116.45433 -4.01911,107.20881 33.49106,186.14532 105.80061,222.64706 26.24693,13.24943 72.95612,28.38693 102.69529,33.28152 l 16.47942,2.71226 -9.09254,14.71206 c -5.0009,8.09159 -11.51411,23.07588 -14.4738,33.29839 -4.70151,16.2386 -7.55287,19.24109 -22.57331,23.76969 -21.88754,6.59894 -47.38157,7.05766 -68.3671,1.23006 -16.83895,-4.67608 -36.73914,-22.49615 -72.30923,-64.75095 -26.10047,-31.00555 -60.24157,-45.75254 -84.43205,-36.46976 -10.60711,4.07031 -8.12633,17.81014 4.77599,26.45187 22.57314,15.11902 43.4435,40.50957 60.2834,73.33984 29.89456,58.281 58.6815,73.95119 133.09421,72.44986 l 42.30509,-0.85356 v 50.96882 c 0,33.85708 -1.74807,52.71682 -5.20678,56.17555 -8.87773,8.87774 -30.28627,5.70694 -65.62039,-9.71897 z"
     id="path12"
     inkscape:connector-curvature="0" />
</svg>
